<svg xmlns="http://www.w3.org/2000/svg" viewBox="0 0 28 28" id="louis-vuitton"><path fill="#FFE577" d="M6.916 2.5c-2.564.088-3.792-.216-2.186 3.141s5.55 9.63 4.377 12.709-3.717 7.15-.249 7.15 7.351 1.713 9.57 0-5.201-1.019-5.895-2.337c-.693-1.318-.451-4.72 1.269-9.163s3.378-6.44 2.199-7.897-4.369 7.49-5.687 3.953-2.843-5.548-1.179-5.964c1.664-.416-.147-1.663-2.219-1.592z"></path><path d="M22.87 26H2.719a.503.503 0 0 1-.466-.681l.507-1.304a.5.5 0 0 1 .466-.319c3.432 0 3.644-.693 3.651-.832a.458.458 0 0 1 .032-.151l2.409-6.321L4.102 5.486c-.255-.501-.399-.782-1.602-.782a.5.5 0 0 1-.5-.5V2.5a.5.5 0 0 1 .5-.5h7a.5.5 0 0 1 .5.5v1.924a.5.5 0 0 1-.5.5c-.51 0-.771.047-.897.084.024.04.06.092.113.157a.487.487 0 0 1 .064.102l2.593 5.489 1.166-3.194c.016-.072.003-.125-.003-.133-.001-.001-.131-.158-.84-.158a.501.501 0 0 1-.468-.675l.478-1.271A.498.498 0 0 1 12.173 5h7.152a.501.501 0 0 1 .464.686l-.522 1.299a.5.5 0 0 1-.464.313c-.857 0-1.92.112-2.121.645l-3.227 8.337 1.201 2.166 6.082-13.155c.242-.541.175-.671.167-.684-.017-.023-.19-.237-1.405-.237a.5.5 0 0 1-.5-.5V2.5a.5.5 0 0 1 .5-.5h6a.5.5 0 0 1 .5.5v1.784a.5.5 0 0 1-.5.5c-1.159 0-1.481.373-1.765 1.209l-7.233 15.716a.499.499 0 0 1-.454.291h-2.557a.5.5 0 0 1-.368-.162l-.608-.662L11.771 23h8.168c1.316 0 2.182-.935 3.43-3.706a.498.498 0 0 1 .455-.294h1.917a.5.5 0 0 1 .451.715l-2.872 6a.497.497 0 0 1-.45.285zM3.45 25h19.105l2.393-5h-.802c-1.173 2.539-2.268 4-4.207 4h-8.912a.5.5 0 0 1-.463-.689l1.324-3.243a.499.499 0 0 1 .832-.149L13.711 21h2.017l7.08-15.377C23.19 4.485 23.845 3.925 25 3.808V3h-5v.383c.94.052 1.473.264 1.744.682.335.518.125 1.148-.095 1.64l-.002.005-6.497 14.051a.5.5 0 0 1-.892.033l-1.792-3.232a.498.498 0 0 1-.029-.423l3.31-8.551c.304-.807 1.194-1.229 2.715-1.282L18.586 6H12.52l-.123.326c.431.077.732.238.928.49.149.192.299.528.168 1.042l-1.591 4.366a.5.5 0 0 1-.922.042L7.901 5.748c-.164-.207-.504-.688-.271-1.178.213-.446.767-.59 1.37-.631V3H3v.722c1.154.093 1.599.537 1.998 1.321l5.314 11.11a.5.5 0 0 1 .016.394l-2.46 6.457c-.165 1.425-2.434 1.666-4.3 1.689L3.45 25zM21.192 5.5h.01-.01z"></path></svg>